#N canvas 556 211 540 358 10;
#X obj 117 142 dac~;
#X msg 106 49 open longchain.sco \, bang;
#X obj 115 89 rtcmix~ 2;
#X msg 169 13 flush;
#N canvas 0 50 450 250 (subpatch) 0;
#X array array1 517340 float 2;
#X coords 0 1 517340 -1 200 140 1;
#X restore 307 39 graph;
#X obj 64 238 openpanel;
#X msg 64 263 read -resize \$1 array1;
#X msg 65 204 bang;
#X obj 63 286 soundfiler;
#X msg 27 22 bufset array1;
#X msg 28 83 setscript 2;
#X msg 35 117 bang;
#X connect 1 0 2 0;
#X connect 2 0 0 0;
#X connect 2 1 0 1;
#X connect 3 0 2 0;
#X connect 5 0 6 0;
#X connect 6 0 8 0;
#X connect 7 0 5 0;
#X connect 9 0 2 0;
#X connect 10 0 2 0;
#X connect 11 0 2 0;
