#N canvas 1 92 871 579 10;
#X obj 116 90 bng 15 250 50 0 empty empty empty 17 7 0 10 -262144 -1
-1;
#X obj 125 228 env~;
#X floatatom 127 262 5 0 0 0 - - -, f 5;
#X obj 184 237 env~;
#X floatatom 186 271 5 0 0 0 - - -, f 5;
#X obj 240 235 env~;
#X floatatom 242 269 5 0 0 0 - - -, f 5;
#X obj 299 244 env~;
#X floatatom 301 278 5 0 0 0 - - -, f 5;
#X obj 302 201 dac~;
#X msg 84 120 flush;
#N canvas 0 50 450 250 (subpatch) 0;
#X array array1 1000 float 2;
#X coords 0 1 1000 -1 200 140 1;
#X restore 367 398 graph;
#X obj 191 336 tabwrite~ array1;
#X obj 440 94 tgl 15 0 empty empty empty 17 7 0 10 -262144 -1 -1 1
1;
#X obj 403 254 dac~;
#X obj 140 39 osc~ 440;
#X obj 215 24 noise~;
#X obj 178 163 rtcmix~ 4 mixtest.sco;
#X obj 294 34 phasor~ 100;
#X obj 293 69 *~ 2;
#X obj 294 97 -~ 1;
#X obj 419 32 osc~ 1000;
#X msg 636 293 \; pd dsp 1;
#X obj 463 68 loadbang;
#X obj 440 114 metro 100;
#N canvas 0 50 450 250 (subpatch) 0;
#X array array2 1000 float 2;
#X coords 0 1 1000 -1 200 140 1;
#X restore 593 397 graph;
#X obj 417 307 tabwrite~ array2;
#X obj 697 224 table police;
#X msg 626 21 bang;
#X obj 626 43 openpanel;
#X msg 626 65 read -resize \$1 police;
#X obj 626 87 soundfiler;
#X msg 494 190 bufset police;
#X connect 0 0 17 0;
#X connect 1 0 2 0;
#X connect 3 0 4 0;
#X connect 5 0 6 0;
#X connect 7 0 8 0;
#X connect 10 0 17 0;
#X connect 13 0 24 0;
#X connect 15 0 17 0;
#X connect 16 0 17 1;
#X connect 17 0 1 0;
#X connect 17 0 12 0;
#X connect 17 0 14 0;
#X connect 17 1 3 0;
#X connect 17 1 14 1;
#X connect 17 1 26 0;
#X connect 17 2 5 0;
#X connect 17 3 7 0;
#X connect 18 0 19 0;
#X connect 19 0 20 0;
#X connect 20 0 17 2;
#X connect 21 0 17 3;
#X connect 23 0 13 0;
#X connect 24 0 12 0;
#X connect 24 0 26 0;
#X connect 28 0 29 0;
#X connect 29 0 30 0;
#X connect 30 0 31 0;
#X connect 32 0 17 0;
