#N canvas 291 343 450 300 10;
#X obj 183 139 rtcmix~ 2;
#X obj 192 186 dac~;
#X msg 182 85 open doc/demo/LONGCHAIN.sco;
#X obj 151 55 bng 15 250 50 0 empty empty empty 17 7 0 10 -262144 -1
-1;
#X connect 0 0 1 0;
#X connect 0 1 1 1;
#X connect 2 0 0 0;
#X connect 3 0 0 0;
