#N canvas 532 278 663 300 10;
#N canvas 0 50 450 250 (subpatch) 0;
#X array array1 4e+06 float 2;
#X coords 0 1 4e+06 -1 200 140 1;
#X restore 433 29 graph;
#X obj 369 232 soundfiler;
#X msg 280 55 editor atom;
#X obj 75 194 dac~;
#X obj 181 167 bng 15 250 50 0 empty empty empty 17 7 0 10 -262144
-1 -1;
#X msg 214 110 bufset array1;
#X msg 222 162 flush;
#X obj 37 37 rtcmix~ 2 2 test.sco;
#X obj 371 189 loadbang;
#X msg 368 209 read -resize /home/jwmatthys/Desktop/test.wav array1
;
#X floatatom 154 215 5 100 1000 0 - - -, f 5;
#X floatatom 208 218 5 100 1000 0 - - -, f 5;
#X msg 124 82 var 1 400 2 405;
#X connect 2 0 7 0;
#X connect 4 0 7 0;
#X connect 5 0 7 0;
#X connect 6 0 7 0;
#X connect 7 0 3 0;
#X connect 7 1 3 1;
#X connect 8 0 9 0;
#X connect 9 0 1 0;
#X connect 10 0 7 2;
#X connect 11 0 7 3;
#X connect 12 0 7 0;
