#N canvas 626 208 641 331 10;
#X msg 148 75 bang;
#X obj 149 117 rtcmix~ 2 longchain.sco;
#X obj 205 174 dac~;
#X msg 221 61 flush;
#X msg 76 72 open;
#X obj 377 112 table foobarb 1000;
#X obj 244 89 adc~;
#X msg 317 28 saveas;
#X obj 321 189 bng 15 250 50 0 empty empty empty 17 7 0 10 -262144
-1 -1;
#X msg 301 66 setscript 2;
#X msg 101 164 2;
#X obj 345 148 print;
#X msg 183 32 var 1 hello;
#X msg 171 227 varlist fee fii 7.9 fumm;
#X connect 0 0 1 0;
#X connect 1 0 2 0;
#X connect 1 1 2 1;
#X connect 1 2 8 0;
#X connect 1 2 11 0;
#X connect 3 0 1 0;
#X connect 4 0 1 0;
#X connect 6 0 1 0;
#X connect 6 1 1 1;
#X connect 7 0 1 0;
#X connect 9 0 1 0;
#X connect 10 0 1 0;
#X connect 12 0 1 0;
#X connect 13 0 1 0;
