#N canvas 638 196 450 300 10;
#X msg 148 75 bang;
#X obj 149 117 rtcmix~ 2 longchain.sco;
#X obj 205 174 dac~;
#X msg 221 61 flush;
#X msg 76 72 open;
#X msg 188 25 editor tedit;
#X connect 0 0 1 0;
#X connect 1 0 2 0;
#X connect 1 1 2 1;
#X connect 3 0 1 0;
#X connect 4 0 1 0;
#X connect 5 0 1 0;
