#N canvas 0 89 450 300 10;
#X obj 156 257 dac~;
#X obj 109 161 bng 30 250 50 0 empty empty empty 17 7 0 10 -123226
-1 -1;
#X obj 109 217 rtcmix~ 2 doc/demo/LONGCHAIN.sco;
#X connect 1 0 2 0;
#X connect 2 0 0 0;
#X connect 2 1 0 1;
